<svg width="16" height="16" viewBox="0 0 16 16" fill="none" xmlns="http://www.w3.org/2000/svg">
<path d="M3.33366 5.33333H12.667C12.8438 5.33333 13.0134 5.2631 13.1384 5.13807C13.2634 5.01305 13.3337 4.84348 13.3337 4.66667C13.3337 4.48986 13.2634 4.32029 13.1384 4.19526C13.0134 4.07024 12.8438 4 12.667 4H3.33366C3.15685 4 2.98728 4.07024 2.86225 4.19526C2.73723 4.32029 2.66699 4.48986 2.66699 4.66667C2.66699 4.84348 2.73723 5.01305 2.86225 5.13807C2.98728 5.2631 3.15685 5.33333 3.33366 5.33333Z" fill="#3761F4"/>
<path d="M11.3333 7.3335H4.66667C4.48986 7.3335 4.32029 7.40373 4.19526 7.52876C4.07024 7.65378 4 7.82335 4 8.00016C4 8.17697 4.07024 8.34654 4.19526 8.47157C4.32029 8.59659 4.48986 8.66683 4.66667 8.66683H11.3333C11.5101 8.66683 11.6797 8.59659 11.8047 8.47157C11.9298 8.34654 12 8.17697 12 8.00016C12 7.82335 11.9298 7.65378 11.8047 7.52876C11.6797 7.40373 11.5101 7.3335 11.3333 7.3335Z" fill="#3761F4"/>
<path d="M9.99967 10.6665H5.99967C5.82286 10.6665 5.65329 10.7367 5.52827 10.8618C5.40325 10.9868 5.33301 11.1564 5.33301 11.3332C5.33301 11.51 5.40325 11.6796 5.52827 11.8046C5.65329 11.9296 5.82286 11.9998 5.99967 11.9998H9.99967C10.1765 11.9998 10.3461 11.9296 10.4711 11.8046C10.5961 11.6796 10.6663 11.51 10.6663 11.3332C10.6663 11.1564 10.5961 10.9868 10.4711 10.8618C10.3461 10.7367 10.1765 10.6665 9.99967 10.6665Z" fill="#3761F4"/>
</svg>
