<svg width="64" height="64" viewBox="0 0 64 64" fill="none" xmlns="http://www.w3.org/2000/svg">
<path d="M32.4403 0.0701386C29.2681 0.0101243 26.1164 0.590679 23.1738 1.77706C20.2312 2.96345 17.5582 4.73127 15.3147 6.97475C13.0713 9.21823 11.3034 11.8913 10.117 14.8339C8.93065 17.7765 8.35009 20.9281 8.4101 24.1003C8.65161 36.7095 18.9351 47.0003 31.5443 47.2345C34.7165 47.2944 37.8682 46.7141 40.8108 45.5275C43.7533 44.3412 46.4264 42.5734 48.67 40.33C50.9134 38.0864 52.6812 35.4134 53.8675 32.4708C55.054 29.5283 55.6344 26.3766 55.5745 23.2043C55.3402 10.5951 45.0495 0.304403 32.4403 0.0701386ZM32.6601 35.3305C31.0194 35.4146 29.3793 35.1532 27.846 34.5632C26.3128 33.9732 24.9206 33.0676 23.7595 31.9054C22.5983 30.7433 21.6943 29.35 21.1057 27.8162C20.5172 26.2824 20.2574 24.642 20.3431 23.0015C20.5028 20.107 21.7245 17.3731 23.7743 15.3232C25.8241 13.2734 28.558 12.0517 31.4525 11.892C33.0921 11.8081 34.7313 12.0692 36.2637 12.6585C37.796 13.2478 39.1876 14.1521 40.3485 15.3131C41.5095 16.474 42.4137 17.8656 43.003 19.398C43.5923 20.9304 43.8533 22.5694 43.7695 24.209C43.6133 27.1062 42.3932 29.8434 40.343 31.8963C38.2928 33.9491 35.557 35.1728 32.6601 35.3329V35.3305Z" fill="#38B6F5"/>
<path d="M22.9973 37.9073L31.5395 35.4197L31.6892 35.3763C31.7496 35.3763 31.8148 35.3763 31.8776 35.3763C33.8635 35.3874 35.8198 34.8932 37.5625 33.9407C39.3052 32.988 40.777 31.608 41.8399 29.9302C42.4057 29.082 42.8612 28.1648 43.1947 27.2012L53.4323 33.5191C52.9824 34.4679 52.4784 35.3905 51.9229 36.2819C49.5189 40.0729 46.0832 43.0995 42.0191 45.006C37.9552 46.9127 33.4315 47.6203 28.9795 47.046L28.6486 46.7296L22.3138 40.6581C22.1073 40.4586 21.9569 40.2081 21.8776 39.9323C21.7984 39.6563 21.7932 39.3643 21.8624 39.0856C21.9316 38.8069 22.073 38.5514 22.2721 38.3447C22.4713 38.1377 22.7214 37.987 22.9973 37.9073Z" fill="#F43787"/>
<path d="M42.3446 36.8928L42.9363 28.0149V27.8604C42.9605 27.8048 42.9846 27.7445 43.0039 27.6841C43.6966 25.823 43.9048 23.8165 43.6089 21.853C43.3133 19.8894 42.5233 18.0332 41.3134 16.4587C40.6997 15.6586 39.9843 14.9417 39.1857 14.3262L48.6577 6.79834C49.3952 7.54712 50.0896 8.33731 50.7371 9.16513C53.4729 12.7216 55.1378 16.9847 55.5361 21.4541C55.9343 25.9235 55.0495 30.4139 52.9855 34.398L52.575 34.6009L44.7017 38.4651C44.4443 38.5919 44.1581 38.6486 43.8717 38.6298C43.5852 38.6109 43.309 38.5172 43.0701 38.3581C42.8315 38.1989 42.6388 37.9796 42.5115 37.7224C42.384 37.4655 42.3265 37.1793 42.3446 36.8928Z" fill="#F99F35"/>
<path d="M47.921 17.9441L39.6638 14.6234L39.5213 14.5654L39.374 14.4471C37.8182 13.212 35.9743 12.3926 34.0149 12.0656C32.0556 11.7386 30.0453 11.9149 28.1728 12.5778C27.2211 12.9054 26.3159 13.3551 25.48 13.9158L21.4685 2.4996C22.3439 2.06239 23.2457 1.68006 24.1686 1.35485C28.3984 -0.142378 32.9677 -0.4021 37.34 0.606166C41.7123 1.61443 45.7061 3.84885 48.8532 7.04723L48.9184 7.50126L50.1526 16.1956C50.1926 16.48 50.1574 16.77 50.0502 17.0364C49.9427 17.3029 49.7673 17.5364 49.5411 17.7136C49.315 17.8907 49.0464 18.0053 48.7619 18.0458C48.4777 18.0862 48.1876 18.0512 47.921 17.9441Z" fill="#F2E735"/>
<path d="M32.363 6.77424L26.3253 13.3264L26.219 13.4423C26.1682 13.4728 26.1191 13.5059 26.0716 13.5413C24.3635 14.5561 22.9412 15.9882 21.9384 17.7034C20.9355 19.4185 20.3849 21.3604 20.3382 23.3466C20.3126 24.142 20.3717 24.9377 20.5145 25.7207L8.53807 26.0467C8.44063 25.0727 8.40273 24.0935 8.42457 23.1148C8.52493 18.6284 9.90295 14.2637 12.3969 10.533C14.8909 6.80236 18.3973 3.86048 22.5046 2.05273L22.9514 2.15175L31.5104 4.08383C31.7879 4.14809 32.0439 4.28353 32.2531 4.47681C32.4622 4.67007 32.6175 4.9145 32.7035 5.18603C32.7897 5.45753 32.8035 5.74679 32.7438 6.02527C32.684 6.30376 32.5528 6.56188 32.363 6.77424Z" fill="#95D62F"/>
<path d="M20.4541 25.5737C20.4965 25.6473 20.5198 25.7302 20.5218 25.8152V58.1436C20.5208 58.9119 20.3686 59.6721 20.0737 60.3815C19.7789 61.0908 19.3472 61.7351 18.8034 62.2775C18.2595 62.8202 17.6142 63.2501 16.9041 63.5433C16.1941 63.8363 15.4333 63.9867 14.6652 63.9857H14.4237C13.6555 63.9867 12.8947 63.8363 12.1846 63.5433C11.4746 63.2501 10.8292 62.8202 10.2854 62.2775C9.74157 61.7351 9.3099 61.0908 9.01506 60.3815C8.72023 59.6721 8.56799 58.9119 8.56704 58.1436V26.2378C8.56541 25.9176 8.64874 25.6024 8.80855 25.3249L10.3277 22.6949L13.134 17.843C13.2788 17.5943 13.4862 17.3881 13.7356 17.2447C13.985 17.1013 14.2676 17.0259 14.5553 17.0259C14.8429 17.0259 15.1256 17.1013 15.375 17.2447C15.6244 17.3881 15.8318 17.5943 15.9766 17.843L18.7853 22.6949L20.4541 25.5737Z" fill="#38B6F5"/>
</svg>
